<?xml version="1.0"?>
<svg xmlns="http://www.w3.org/2000/svg" viewBox="0 0 800 240" width="800" height="240">
  <defs><linearGradient id="g" x1="0" y1="0" x2="0.55" y2="1">
    <stop offset="0" stop-color="#4A8BE8"></stop><stop offset="0.5" stop-color="#3B7DD8"></stop><stop offset="1" stop-color="#1E4FB5"></stop>
  </linearGradient></defs>
  <g transform="translate(10 25) scale(0.1855)">
    <rect width="1024" height="1024" rx="225" fill="url(#g)"></rect>
    <circle cx="512" cy="512" r="340" fill="none" stroke="#FFFFFF" stroke-opacity="0.34" stroke-width="96"></circle>
  <circle cx="512" cy="512" r="340" fill="none" stroke="#FFFFFF" stroke-width="96" stroke-linecap="round" stroke-dasharray="1324.5 831.8" transform="rotate(-90 512 512)"></circle>
  <circle cx="512" cy="512" r="96" fill="#3DBA8E"></circle>
  </g>
  
  <g fill="none" stroke="#16255B" stroke-width="26" stroke-linecap="round" stroke-linejoin="round">
    <path d="M262 100 V170"></path>
    <path d="M300 50 V170"></path>
    <path d="M300 50 H336 a60 60 0 0 1 0 120 H300"></path>
    <path d="M430 135 a35 35 0 1 1 70 0 a35 35 0 1 1 -70 0 Z"></path>
    <path d="M500 100 V170"></path>
    <path d="M535 100 L567 163"></path>
    <path d="M599 100 L553 198"></path>
    <path d="M635 135 a35 35 0 1 1 70 0 a35 35 0 1 1 -70 0 Z"></path>
    <path d="M705 100 V170"></path>
    <path d="M743 50 V170"></path>
  </g>
  <circle cx="262" cy="64" r="14" fill="#16255B"></circle>
</svg>